# xmcd
#
# Track frame offsets:
#	150
#	13445
#	27370
#	41012
#	51042
#	65507
#	79767
#	97507
#	109450
#	120745
#	137130
#	150622
#	160532
#	172282
#	184350
#	195637
#
# Disc length: 2895 seconds
#
# Revision: 1
# Processed by: cddbd v1.5.2PL0 Copyright (c) Steve Scherf et al.
# Submitted via: audiograbber 1.83.01
#
DISCID=db0b4d10
DTITLE=Various Artist - Media's Affenstarke Country Hits
DYEAR=1994
DGENRE=Country
TTITLE0=Lynn Anderson - Rose Garden
TTITLE1=George Jones - A Good Year For The Roses
TTITLE2=Jimmy Dean - Big Bad John
TTITLE3=Johnny Cash - The Next In Line
TTITLE4=Loretta Lynn - Coal Miner's Daughter
TTITLE5=Willie Nelson - Will You Remember
TTITLE6=Tom Astor - Lucille
TTITLE7=Donna Fargo - Us Of America
TTITLE8=Don Gibson - Oh, Lonesome Me
TTITLE9=Ricky Nelson - Garden Party
TTITLE10=Kenny Rogers and The First Edition - Ruby Don't Take Your Love To Town
TTITLE11=Hank Locklin - Please Help Me, I'm Falling
TTITLE12=Patsy Cline - Walkin' After Midnight
TTITLE13=Susan Raye - La International Airport
TTITLE14=Faron Young - Country Girl
TTITLE15=Johnny Hill - Ruf Teddy Bär Eins-Vier
EXTD=
EXTT0=
EXTT1=
EXTT2=
EXTT3=
EXTT4=
EXTT5=
EXTT6=
EXTT7=
EXTT8=
EXTT9=
EXTT10=
EXTT11=
EXTT12=
EXTT13=
EXTT14=
EXTT15=
PLAYORDER=
